<?xml version="1.0" encoding="iso-8859-1"?>
<!-- Uploaded to: SVG Repo, www.svgrepo.com, Generator: SVG Repo Mixer Tools -->
<svg height="800px" width="800px" version="1.1" id="Layer_1" xmlns="http://www.w3.org/2000/svg" xmlns:xlink="http://www.w3.org/1999/xlink" 
	 viewBox="0 0 295.996 295.996" xml:space="preserve">
<g>
	<path style="fill:#FFCE00;" d="M270.822,130.997h-17.324c-3.817,23.069-23.853,40.668-48.002,40.668s-44.183-17.599-48-40.668
		h-18.998c-3.817,23.069-23.853,40.668-48.002,40.668s-44.183-17.599-48-40.668H31.771c-4.319,14.354-6.393,29.65-5.816,45.466
		c0.412,11.304,2.17,22.239,5.087,32.673c6.303,12.01,14.397,22.938,23.934,32.42c21.892,14.189,47.99,22.44,76.022,22.44
		C205.969,263.996,267.175,205.064,270.822,130.997z M81.914,180.997c22.657,0,132.166,0,132.166,0
		c0,36.448-29.587,66.083-66.083,66.083C111.5,247.08,81.914,217.445,81.914,180.997z"/>
	<path style="fill:#FFCE00;" d="M237.531,51.102c-22.391-13.376-48.766-20.666-76.771-19.645
		c-55.416,2.021-102.128,35.987-123.08,83.54h4.816c3.818-23.068,23.852-40.666,48-40.666s44.184,17.598,48.002,40.666h18.998
		c3.818-23.068,23.852-40.666,48-40.666c24.149,0,44.184,17.598,48.002,40.666h17.209c-0.52-8.179-1.753-16.162-3.618-23.898
		C259.82,75.945,249.739,62.39,237.531,51.102z"/>
	<path style="fill:#FFB100;" d="M278.904,130.997h-8.082c-3.647,74.066-64.854,132.999-139.824,132.999
		c-28.032,0-54.131-8.251-76.022-22.44c23.88,23.744,56.767,38.44,93.022,38.44c72.784,0,131.998-59.214,131.998-131.998
		C279.996,142.238,279.623,136.564,278.904,130.997z"/>
	<path style="fill:#FFB100;" d="M267.089,91.099c1.865,7.736,3.099,15.72,3.618,23.898h5.112
		C273.673,106.687,270.733,98.693,267.089,91.099z"/>
	<path style="fill:#FFE454;" d="M160.76,31.457c28.006-1.021,54.381,6.269,76.771,19.645C213.985,29.328,182.521,16,147.998,16
		C86.605,16,34.867,58.13,20.177,114.997H37.68C58.632,67.444,105.344,33.478,160.76,31.457z"/>
	<path style="fill:#FFE454;" d="M31.771,130.997h-14.68C16.373,136.564,16,142.238,16,147.998c0,22.05,5.442,42.849,15.042,61.138
		c-2.917-10.434-4.675-21.369-5.087-32.673C25.379,160.648,27.452,145.351,31.771,130.997z"/>
	<path d="M147.998,0C66.392,0,0,66.392,0,147.998s66.392,147.998,147.998,147.998s147.998-66.392,147.998-147.998
		S229.605,0,147.998,0z M147.998,279.996c-36.256,0-69.143-14.696-93.022-38.44c-9.536-9.482-17.631-20.41-23.934-32.42
		C21.442,190.847,16,170.048,16,147.998c0-5.76,0.373-11.434,1.092-17.001h14.68h10.725c3.817,23.069,23.851,40.668,48,40.668
		s44.185-17.599,48.002-40.668h18.998c3.817,23.069,23.851,40.668,48,40.668s44.185-17.599,48.002-40.668h17.324h8.082
		c0.719,5.567,1.092,11.241,1.092,17.001C279.996,220.782,220.782,279.996,147.998,279.996z M270.707,114.997h-17.209
		c-3.818-23.068-23.853-40.666-48.002-40.666c-24.148,0-44.182,17.598-48,40.666h-18.998c-3.818-23.068-23.853-40.666-48.002-40.666
		c-24.148,0-44.182,17.598-48,40.666H37.68H20.177C34.867,58.13,86.605,16,147.998,16c34.523,0,65.987,13.328,89.533,35.102
		c12.208,11.288,22.289,24.844,29.558,39.997c3.644,7.595,6.584,15.588,8.73,23.898H270.707z M238.164,122.998
		c0,18.013-14.654,32.667-32.668,32.667c-18.012,0-32.666-14.654-32.666-32.667s14.654-32.667,32.666-32.667
		C223.51,90.331,238.164,104.985,238.164,122.998z M123.164,122.998c0,18.013-14.654,32.667-32.668,32.667
		c-18.012,0-32.666-14.654-32.666-32.667s14.654-32.667,32.666-32.667C108.51,90.331,123.164,104.985,123.164,122.998z"/>
	<path style="fill:#FFE454;" d="M90.496,90.331c-18.012,0-32.666,14.654-32.666,32.667s14.654,32.667,32.666,32.667
		c18.014,0,32.668-14.654,32.668-32.667S108.51,90.331,90.496,90.331z M106.496,122.998c0,8.836-7.164,16-16,16s-16-7.164-16-16
		s7.164-16,16-16S106.496,114.162,106.496,122.998z"/>
	<path style="fill:#FFE454;" d="M205.496,90.331c-18.012,0-32.666,14.654-32.666,32.667s14.654,32.667,32.666,32.667
		c18.014,0,32.668-14.654,32.668-32.667S223.51,90.331,205.496,90.331z M221.496,122.998c0,8.836-7.164,16-16,16s-16-7.164-16-16
		s7.164-16,16-16S221.496,114.162,221.496,122.998z"/>
	<circle cx="90.496" cy="122.998" r="16"/>
	<circle cx="205.496" cy="122.998" r="16"/>
	<path style="fill:#FFFFFF;" d="M147.881,231.08c22.023,0,40.657-14.289,47.348-34.083h-0.231h-94.463
		C107.225,216.791,125.857,231.08,147.881,231.08z"/>
	<path d="M214.08,180.997c0,0-109.509,0-132.166,0c0,36.448,29.586,66.083,66.083,66.083
		C184.493,247.08,214.08,217.445,214.08,180.997z M194.997,196.997h0.231c-6.69,19.794-25.324,34.083-47.348,34.083
		s-40.656-14.289-47.347-34.083L194.997,196.997L194.997,196.997z"/>
</g>
</svg>